# xmcd CD database file
#
# Track frame offsets:
#	150
#	14778
#	28469
#	45691
#	57504
#	74747
#	89492
#	103713
#	118758
#	133410
#	143354
#	155894
#	168923
#	182328
#	198565
#	209229
#	221681
#	232784
#	248010
#	260785
#	276604
#	285817
#	294218
#	308780
#	323599
#
# Disc length: 4525 seconds
#
# Revision: 0
# Processed by: cddbd v1.5.2PL0 Copyright (c) Steve Scherf et al.
# Submitted via: CDex 1.51
#
DISCID=8f11ab19
DTITLE=Glenn Miller - Glenn Miller Orchestra Disc 2
DYEAR=1900
DGENRE=Jazz
TTITLE0=Pennsylvania 6-5000
TTITLE1=Little Brown Jug
TTITLE2=I Dreamt I Dwelt In Harlem
TTITLE3=Baby Me
TTITLE4=Geln Island Special
TTITLE5=I've Got A Gal In Kalamazoo
TTITLE6=That Old Black Magic
TTITLE7=Kings March
TTITLE8=Chestnut Tree
TTITLE9=Serenade In Blue
TTITLE10=Georgia On My Mind
TTITLE11=The Little Man Who Wasn't There
TTITLE12=April In Paris
TTITLE13=American Patrol
TTITLE14=Enlisted Men's Mess
TTITLE15=Pin Ball Paul
TTITLE16=Slumber Song
TTITLE17=Song Of The Vulgar Boatman
TTITLE18=Everybody Loves My Baby
TTITLE19=Begin The Beguine
TTITLE20=Over There
TTITLE21=Blues In My Heart
TTITLE22=My Blue Heaven
TTITLE23=In The Mood
TTITLE24=Tuxedo Junction
EXTD=
EXTT0=
EXTT1=
EXTT2=
EXTT3=
EXTT4=
EXTT5=
EXTT6=
EXTT7=
EXTT8=
EXTT9=
EXTT10=
EXTT11=
EXTT12=
EXTT13=
EXTT14=
EXTT15=
EXTT16=
EXTT17=
EXTT18=
EXTT19=
EXTT20=
EXTT21=
EXTT22=
EXTT23=
EXTT24=
PLAYORDER=
